<svg xmlns="http://www.w3.org/2000/svg" viewBox="0 0 860.00 181.87" width="860" height="182" role="img" aria-label="automyze"><g transform="scale(0.10000,-0.10000) translate(120.00,-1088.93)" fill="#14171C"><path d="M560.4274963438511 93.0454037413001V102.39275695383549L549.1278183087707 92.37835021317005V736.1625567823648Q549.1278183087707 807.7497125416994 519.349555823952 846.1507730260491Q489.57129333913326 884.5518335103989 433.65442230552435 884.5518335103989Q370.897705078125 884.5518335103989 340.0832812488079 853.2300239689648Q309.2688574194908 821.9082144275308 309.2688574194908 782.7455465719104V701.4544665515423Q309.2688574194908 651.5228918492794 274.0060105882585 617.2451492324471Q238.7431637570262 582.9674066156149 183.32208771258593 582.9674066156149Q144.02278047055006 582.9674066156149 118.44081208854914 606.840787962079Q92.85884370654821 630.7141693085432 92.85884370654821 678.7557330280542Q92.85884370654821 731.0931964069605 134.78859101980925 781.9192161522806Q176.71833833307028 832.7452358976007 259.2577626146376 866.0275239534676Q341.79718689620495 899.3098120093346 462.54870299994946 899.3098120093346Q627.197262570262 899.3098120093346 708.4052407816052 830.4363055378199Q789.6132189929485 761.5627990663052 789.6132189929485 635.9486578255892V117.13211636990309Q789.6132189929485 82.02402494102716 801.9033192433417 66.44257505238056Q814.1934194937348 50.86112516373396 832.4311498999596 50.86112516373396Q849.8913571164012 50.86112516373396 864.1463012695312 61.95484617352486Q878.4012454226613 73.04856718331575 881.6637576296926 98.25804503262043Q882.328796081245 102.09300658106804 883.8863511644304 103.43678709864616Q885.4439062476158 104.78056761622429 887.1339691132307 104.78056761622429Q889.8590637147427 104.78056761622429 891.0190969780087 103.38048445805907Q892.1791302412748 101.98040129989386 892.1791302412748 98.04033996164799Q892.1791302412748 79.2479248046875 874.7981808409095 51.93222137540579Q857.4172314405441 24.616517946124077 818.4205892905593 3.265778962522745Q779.4239471405745 -18.084960021078587 714.1756530702114 -18.084960021078587Q634.0544961467385 -18.084960021078587 597.2409962452948 13.136259000748396Q560.4274963438511 44.35747802257538 560.4274963438511 93.0454037413001ZM42.564279183745384 194.59234802424908Q42.564279183745384 303.3967916890979 132.9401631243527 369.83178909495473Q223.31604706496 436.2667865008116 418.77608278393745 436.2667865008116Q480.61713898926973 436.2667865008116 520.0843896567822 424.1803909316659Q559.5516403242946 412.0939953625202 593.2124060094357 393.8939205929637L585.432384043932 385.9607696682215Q551.4242636188865 402.3509073033929 516.2221437133849 411.35365403816104Q481.02002380788326 420.3564007729292 437.049073792994 420.3564007729292Q362.14959655702114 420.3564007729292 321.86489486321807 370.45249619707465Q281.580193169415 320.5485916212201 281.580193169415 229.55156798660755Q281.580193169415 141.7168414145708 320.39342559129 95.99281156808138Q359.206658013165 50.26878172159195 421.61290526390076 50.26878172159195Q463.17418975383043 50.26878172159195 503.891572419554 70.23155638575554Q544.6089550852776 90.19433104991913 571.5023330822587 126.88263519853354L582.4422754049301 119.83211336284876Q539.0869253650308 52.697337962687016 462.3817843720317 17.108679357916117Q385.6766433790326 -18.479979246854782 297.0765441954136 -18.479979246854782Q184.2439685165882 -18.479979246854782 113.4041238501668 41.1849363707006Q42.564279183745384 100.84985198825598 42.564279183745384 194.59234802424908Z" transform="translate(0,0)"/><path d="M686.1376928687096 30.67432764917612V160.81981322169304L686.0250875875354 166.19719756394625V781.7650461122394Q686.0250875875354 788.0151651278138 682.9638385027647 791.5139737203717Q679.902589417994 795.0127823129296 672.3775634765625 795.0503174066544L607.5336270108819 795.102866537869Q602.7586025968194 795.1554156690836 600.5835545323789 797.3442253284156Q598.4085064679384 799.5330349877477 598.4085064679384 802.4780999869108Q598.4085064679384 806.2432315126061 600.9035607874393 807.9533120766282Q603.3986151069403 809.6633926406503 607.2938723638654 810.7759994491935L892.5995166301727 890.4218176305294Q901.5697235316038 893.1694332882762 905.6211407631636 893.841977994889Q909.6725579947233 894.5145227015018 913.8826355040073 894.5145227015018Q919.6178564429283 894.5145227015018 922.4904713369906 890.933137666434Q925.3630862310529 887.3517526313663 925.3630862310529 882.2440319955349V56.550752229988575Q925.3630862310529 43.12070279568434 931.1018882654607 35.13571759685874Q936.8406902998686 27.150732398033142 949.5107369944453 24.51071836054325L1004.0915463194251 15.103186927735806Q1010.4616616740823 14.425637796521187 1012.6504736244678 12.216808911412954Q1014.8392855748534 10.007980026304722 1014.8392855748534 6.850329577922821Q1014.8392855748534 3.8402032405138016 1012.5954226627946 1.9201016202569008Q1010.3515597507358 0 1005.8388110399246 0H713.8340639844537Q700.5010076612234 0 693.3193502649665 7.822981856763363Q686.1376928687096 15.645963713526726 686.1376928687096 30.67432764917612ZM118.60230103135109 234.56650632619858V781.7650461122394Q118.60230103135109 788.0151651278138 115.34354233369231 791.5139737203717Q112.08478363603354 795.0127823129296 104.16473846882582 795.0503174066544L39.32080200314522 795.102866537869Q34.54577758908272 795.1554156690836 32.37072952464223 797.3442253284156Q30.19568146020174 799.5330349877477 30.19568146020174 802.4780999869108Q30.19568146020174 806.2432315126061 32.69073577970266 807.9533120766282Q35.18579009920359 809.6633926406503 39.08104735612869 810.7759994491935L325.17673007398844 890.4218176305294Q334.7619265988469 893.1769403070211 338.5133560374379 893.8457315042615Q342.2647854760289 894.5145227015018 346.42982087284327 894.5145227015018Q352.1875628679991 894.5145227015018 355.06393127143383 890.933137666434Q357.9402996748686 887.3517526313663 357.9402996748686 882.2440319955349V259.1808825433254Q357.9402996748686 170.9817272722721 397.47630797326565 130.0446854941547Q437.0123162716627 89.10764371603727 504.06858946383 89.10764371603727Q546.0968481302261 89.10764371603727 589.4839646779001 107.153055857867Q632.871081225574 125.19846799969673 675.6047906428576 164.08207670599222L710.4771728515625 195.1320080459118L720.9323657155037 184.06432891637087L684.8925607129931 151.8319607451558Q581.005297228694 59.32196106016636 498.3596351481974 21.21102935820818Q415.71397306770086 -16.89990234375 344.7565148770809 -16.89990234375Q246.18083892017603 -16.89990234375 182.39156997576356 43.98064376041293Q118.60230103135109 104.86118986457586 118.60230103135109 234.56650632619858Z" transform="translate(912,0)"/><path d="M105.86682526022196 845.2542941495776 19.58154632896185 862.801598533988Q13.943908996880054 864.4791491925716 11.745087433606386 866.4904692284763Q9.546265870332718 868.5017892643809 9.546265870332718 871.6494293361902Q9.546265870332718 874.4696133509278 11.79388152807951 876.4796809442341Q14.041497185826302 878.4897485375404 16.50169676542282 878.4897485375404H104.15934874117374Q110.97978453338146 878.4897485375404 115.4324816763401 880.5773934945464Q119.88517881929874 882.6650384515524 124.05021268874407 888.100338742137L315.7706436291337 1077.6213980093598Q321.56317780166864 1082.6940869092941 327.3368856832385 1085.811638634652Q333.11059356480837 1088.9291903600097 338.0956970155239 1088.9291903600097Q343.8932394310832 1088.9291903600097 347.3994932435453 1085.1054321229458Q350.9057470560074 1081.281673885882 350.9057470560074 1073.6591818258166V231.4970565661788Q350.9057470560074 150.63267271220684 381.4656254462898 111.16669767349958Q412.02550383657217 71.70072263479233 464.78289183974266 71.70072263479233Q484.20818328112364 71.70072263479233 501.54827056080103 77.41330502927303Q518.8883578404784 83.12588742375374 533.6521201990545 95.60961865261197Q548.4158825576305 108.0933498814702 560.0159168876708 128.22304913029075Q571.615951217711 148.3527483791113 579.5486245527864 177.18698208779097Q581.7137820199132 183.11178830266 586.1662342585623 182.58914746716619Q590.6186864972115 182.06650663167238 588.643710911274 175.05638182163239Q573.0413555651903 109.76280760765076 544.4353123269975 67.07985915616155Q515.8292690888047 24.396910704672337 471.0710658170283 3.378510896116495Q426.31286254525185 -17.639888912439346 362.26653930544853 -17.639888912439346Q246.1158456429839 -17.639888912439346 182.98907699808478 37.28067322075367Q119.86230835318565 92.20123535394669 119.86230835318565 206.40722870081663V825.9312390387058Q119.86230835318565 834.7514276355505 117.16592834889889 839.456566337496Q114.46954834461212 844.1617050394416 105.86682526022196 845.2542941495776ZM276.8271365240216 857.0841360762715 283.9367593303323 878.4897485375404H581.5679205209017Q586.808149702847 878.4897485375404 589.050760935992 876.8871513418853Q591.293372169137 875.2845541462302 591.293372169137 870.9044314697385Q591.293372169137 865.236775226891 584.6407299637794 861.1604556515813Q577.9880877584219 857.0841360762715 565.7951736524701 857.0841360762715Z" transform="translate(1952,0)"/><path d="M503.2619033828378 898.5297824069858Q635.3489974960685 898.5297824069858 737.4424713104963 839.6735507175326Q839.5359451249242 780.8173190280795 898.0270635932684 676.4111003093421Q956.5181820616126 572.0048815906048 956.5181820616126 435.65240570157766Q956.5181820616126 301.16741973906755 896.5221202038229 198.5436714179814Q836.5260583460331 95.91992309689522 731.7426437363029 37.92993347346783Q626.9592291265726 -20.060056149959564 491.2871734648943 -20.060056149959564Q359.2000793516636 -20.060056149959564 257.5041273571551 37.61868515238166Q155.80817536264658 95.29742645472288 98.1045927517116 197.928681794554Q40.401010140776634 300.5599371343851 40.401010140776634 435.7074566632509Q40.401010140776634 570.6149880960584 99.60697327554226 674.8124366737902Q158.81293641030788 779.0098852515221 263.3000564649701 838.7698338292539Q367.78717651963234 898.5297824069858 503.2619033828378 898.5297824069858ZM552.9367126524448 -2.136682152748108Q614.623361825943 3.7284310683608055 654.1509799286723 57.706096172332764Q693.6785980314016 111.68376127630472 707.2469561845064 212.76366194710135Q720.8153143376112 313.843562617898 703.5305236876011 459.82794281095266Q686.2557418867946 606.9848715290427 650.0550567656755 702.5283644236624Q613.8543716445565 798.0718573182821 561.9479985050857 842.27800584957Q510.0416253656149 886.484154380858 444.9698467999697 880.0140603855252Q381.1105316132307 873.5564785972238 341.7804231233895 818.5912654288113Q302.45031463354826 763.6260522603989 290.6632362343371 662.9448640532792Q278.8761578351259 562.2636758461595 295.56097289919853 417.8518655374646Q312.83575470000505 273.86259764432907 349.53399749845266 178.1178416274488Q386.2322402969003 82.37308561056852 438.3323695398867 37.1831425242126Q490.43249878287315 -8.006800562143326 552.9367126524448 -2.136682152748108Z" transform="translate(2557,0)"/><path d="M364.1903073117137 883.4339743182063V55.365815095603466Q364.1903073117137 43.71317136287689 370.8178121969104 34.843236822634935Q377.44531708210707 25.97330228239298 389.52289520949125 23.325781226158142L444.08869049698114 14.503211341798306Q453.5764224305749 13.15061490982771 453.5764224305749 6.880357652902603Q453.5764224305749 0 443.38350374251604 0H43.17138488590717Q38.861211247742176 0 36.32361664623022 2.216335903853178Q33.786022044718266 4.432671807706356 33.786022044718266 6.850329577922821Q33.786022044718266 9.212936386466026 36.861034251749516 11.520489942282438Q39.936046458780766 13.82804349809885 44.91864960640669 14.900611855089664L100.70465790480375 24.51071836054325Q113.96717316657305 27.155737586319447 119.40974091738462 34.543249029666185Q124.8523086681962 41.930760473012924 124.8523086681962 52.20089718699455V781.7700513005257Q124.8523086681962 788.6126388832927 122.0872938670218 793.0001503266394Q119.3222790658474 797.3876617699862 111.79725312441587 797.4251968637109L43.9909738227725 797.4777459949255Q40.993355110287666 797.5302951261401 38.5220727622509 799.7191047854722Q36.050790414214134 801.9079144448042 36.050790414214134 804.2605108767748Q36.050790414214134 807.4331738352776 38.54584473371506 809.7357229664922Q41.04089905321598 812.0382720977068 46.121093444526196 813.15087890625L332.0192062780261 893.3891656547785Q339.8044760450721 896.1367813125253 344.1521275602281 896.5130917355418Q348.49977907538414 896.8894021585584 352.70985658466816 896.8894021585584Q359.0375460907817 896.8894021585584 361.6139267012477 892.715548556298Q364.1903073117137 888.5416949540377 364.1903073117137 883.4339743182063ZM344.05065643042326 685.9104086384177 333.59546356648207 695.200682066381 368.4503314346075 728.0255188047886Q470.3727502524853 823.892880551517 553.004589702934 861.2138340733945Q635.6364291533828 898.5347875952721 706.0064239650965 898.5347875952721Q804.4021679759026 898.5347875952721 866.9914262406528 837.6579950004816Q929.580684505403 776.7812024056911 929.580684505403 647.0683789253235V53.81649257987738Q929.580684505403 39.976167269051075 936.5146148651838 32.085971653461456Q943.4485452249646 24.195776037871838 956.5238626077771 21.740699134767056L996.4497644007206 14.893104836344719Q1006.3223846405745 12.355571269989014 1006.3223846405745 6.880357652902603Q1006.3223846405745 0 993.769602060318 0H612.2089184522629Q603.5958355814219 0 603.5958355814219 6.880357652902603Q603.5958355814219 13.15061490982771 613.8686007782817 14.503211341798306L662.9248709157109 22.140844091773033Q681.7324298173189 26.368321508169174 687.7649635411799 38.408299688249826Q693.7974972650409 50.44827786833048 693.7974972650409 66.85080105811357V621.2690655738115Q693.7974972650409 704.7284723073244 652.7916375845671 748.6278569214046Q611.7857779040933 792.5272415354848 547.28681794554 792.5272415354848Q501.6987426877022 792.5272415354848 460.7915451154113 774.9780758842826Q419.8843475431204 757.4289102330804 377.7381015047431 717.5528085455298ZM904.7006823718548 685.9104086384177 894.2454895079136 695.200682066381 925.5455459728837 731.5803302079439Q1002.5541348233819 819.1054660007358 1073.2838104218245 858.8201267980039Q1144.013486020267 898.5347875952721 1219.4654568508267 898.5347875952721Q1311.8709686249495 898.5347875952721 1371.8807951323688 837.651738896966Q1431.8906216397882 776.7686901986599 1448.0657910108566 645.8834417909384L1522.6234719827771 56.186366848647594Q1524.6434912085533 40.56863583624363 1531.7523490898311 31.884708531200886Q1538.861206971109 23.200781226158142 1551.9365243539214 20.555762000381947L1590.6925030499697 13.715674720704556Q1595.082637630403 13.038125589489937 1597.2689469866455 11.32304060086608Q1599.4552563428879 9.607955612242222 1599.4552563428879 6.850329577922821Q1599.4552563428879 3.8402032405138016 1597.2163986191154 1.9201016202569008Q1594.9775408953428 0 1590.4647921845317 0H1194.5497366264462Q1185.9366537556052 0 1185.9366537556052 6.880357652902603Q1185.9366537556052 12.360576458275318 1196.209418952465 14.503211341798306L1245.2656890898943 22.140844091773033Q1264.0732479915023 25.97330228239298 1271.1157913282514 38.80325864255428Q1278.1583346650004 51.63321500271559 1276.1383154392242 69.22067532688379L1212.292612619698 621.2690655738115Q1201.8972287103534 704.7234671190381 1168.0854898169637 748.6253543272614Q1134.273750923574 792.5272415354848 1073.7801593095064 792.5272415354848Q1037.329353645444 792.5272415354848 1003.7820810005069 774.6667665280402Q970.2348083555698 756.8062915205956 934.8333160430193 721.1076199486852Z" transform="translate(3554,0)"/><path d="M589.7449905350804 216.28311710059643 471.94062684476376 -87.47705261409283 128.48153506219387 729.0994238257408Q102.98940523713827 789.6286081001163 72.64574678987265 822.9863749854267Q42.30208834260702 856.3441418707371 4.886799640953541 862.5991455316544Q-5.2330761551856995 864.8566510230303 -7.505597975105047 867.0567219741642Q-9.778119795024395 869.2567929252982 -9.778119795024395 871.6344137713313Q-9.778119795024395 875.6370330899954 -7.226762071251869 877.0633908137679Q-4.675404347479343 878.4897485375404 -0.8051715046167374 878.4897485375404H450.74378510564566Q455.5990039110184 878.4897485375404 457.8541273511946 876.868383795023Q460.10925079137087 875.2470190525055 460.10925079137087 870.8493805080652Q460.10925079137087 867.0892526432872 457.71917648240924 865.4791476652026Q455.3291021734476 863.869042687118 449.7114886492491 862.6140390262008L380.91810151189566 853.2415423840284Q356.8403982594609 849.9565091207623 351.50912918522954 830.301722895354Q346.17786011099815 810.6469366699457 360.12018372118473 777.4997757151723ZM414.56197848170996 -211.12833005189896 508.56416963785887 28.58186464011669 522.251719981432 64.02667327970266 783.6797680854797 747.5263467803597Q802.9449026659131 798.4415042474866 791.7874917760491 820.7128918766975Q780.6300808861852 842.9842795059085 744.4924420267344 850.6216696426272L689.4796856790781 862.1889917254448Q683.0795407220721 863.8390146121383 680.4844497814775 865.5603557042778Q677.8893588408828 867.2816967964172 677.8893588408828 870.454361282289Q677.8893588408828 874.8519998267293 680.4407165646553 876.6708741821349Q682.9920742884278 878.4897485375404 687.254824526608 878.4897485375404H932.1628472954035Q937.415587157011 878.4897485375404 939.8682202100754 876.6683715879917Q942.3208532631397 874.846994638443 942.3208532631397 870.8443753197789Q942.3208532631397 867.7067440971732 939.938285972923 865.9929100237787Q937.5557186827064 864.2790759503841 931.158075556159 862.5915179699659Q878.2686596512794 853.1316800191998 849.4348315298557 828.0554214790463Q820.601003408432 802.9791629388928 799.7809384092689 747.964155010879L425.398365162313 -224.06744232028723Q390.5338653475046 -317.0108013898134 364.64760787412524 -375.9034123234451Q338.76135040074587 -434.79602325707674 304.6865243539214 -462.307927403599Q270.61169830709696 -489.8198315501213 208.80285980552435 -489.8198315501213Q131.6987381055951 -489.8198315501213 84.23932969197631 -443.0268322825432Q36.779921278357506 -396.23383301496506 36.779921278357506 -330.1272110119462Q36.779921278357506 -280.5358395501971 63.0443249642849 -252.82261430099607Q89.30872865021229 -225.109389051795 128.08551941812038 -225.109389051795Q162.4999429360032 -225.109389051795 184.86319336295128 -247.5178646966815Q207.22644378989935 -269.926340341568 219.8859872445464 -311.65296479314566L231.3005374148488 -351.6372198611498Q239.10772705078125 -381.3095273002982 253.3588581867516 -405.62648775428534Q267.60998932272196 -429.94344820827246 291.4022915735841 -429.94344820827246Q310.46735902130604 -429.94344820827246 328.51115556433797 -404.0955070666969Q346.5549521073699 -378.2475659251213 367.41237673163414 -329.0574591010809Q388.2698013558984 -279.8673522770405 414.56197848170996 -211.12833005189896Z" transform="translate(5151,0)"/><path d="M771.9987237602472 848.8793017864227 292.0532171577215 10.33007537573576 252.42966978251934 17.70292142778635H508.45757665485144Q552.2104294225574 17.70292142778635 588.1166397407651 34.63755338639021Q624.0228500589728 51.57218534499407 661.7273150831461 97.01133421063423Q699.4317801073194 142.4504830762744 746.6956985667348 226.96653562784195L790.4777539372444 308.4813223257661Q793.2078537270427 312.9064886420965 796.0779660269618 314.8690122924745Q798.9480783268809 316.8315359428525 802.3382098525763 315.21404448896646Q804.5809408649802 314.18151458352804 805.6747198551893 310.8401184082031Q806.7684988453984 307.4987222328782 805.1284848079085 299.49372162669897L746.7259585633874 -4.452576600015163Q745.0659237727523 -14.872499696910381 743.034585274756 -18.078767243772745Q741.0032467767596 -21.28503479063511 738.1855645924807 -21.28503479063511Q730.1929541230202 -21.28503479063511 713.0095730796456 -10.642517395317554Q695.8261920362711 0 665.9917202964425 0H48.07627561688423Q44.1909112483263 0 41.80453323200345 1.7250946015119553Q39.4181552156806 3.4501892030239105 39.4181552156806 6.490343615412712Q39.4181552156806 10.045394577085972 41.191927187144756 14.821666851639748Q42.96569915860891 19.597939126193523 47.74572570621967 28.42538907378912L531.6111523509026 868.699708558619L575.4271316602826 860.7818219214678H305.55666622519493Q269.8041705042124 860.7818219214678 240.1678558140993 845.2494133226573Q210.53154112398624 829.7170047238469 180.48180129006505 790.7687324769795Q150.43206145614386 751.8204602301121 113.74058928340673 681.471581749618L64.0796273574233 588.9384848102927Q61.17459928244352 583.5533554181457 57.92448179423809 581.3870057798922Q54.67436430603266 579.2206561416388 50.66411742568016 579.8731808587909Q47.06140045076609 581.1181741431355 45.955048982053995 584.7745721489191Q44.848697513341904 588.4309701547027 45.903750002384186 596.8361157178879L100.22094848752022 877.382024846971Q102.27099731564522 888.5994949415326 104.50485061481595 892.4070492610335Q106.73870391398668 896.2146035805345 110.35643492639065 896.2146035805345Q118.5514999255538 896.2146035805345 135.33235396072268 887.3521760590374Q152.11320799589157 878.4897485375404 180.54765532165766 878.4897485375404H771.6681738495827Q775.9485574439168 878.4897485375404 778.3349354602396 877.0633908137679Q780.7213134765625 875.6370330899954 780.7213134765625 871.6043856963515Q780.7213134765625 868.0543399229646 778.9475415050983 863.376792319119Q777.1737695336342 858.6992447152734 771.9987237602472 848.8793017864227Z" transform="translate(6075,0)"/><path d="M841.60908357054 517.7571749612689Q841.60908357054 508.78172178566456 835.7900879085064 503.08278349786997Q829.9710922464728 497.3838452100754 817.9757373332977 497.3838452100754H198.31854309141636V515.7391769215465H586.2030288949609Q603.0458621457219 515.7391769215465 603.0458621457219 534.8893218785524Q603.0458621457219 712.099853515625 555.5364259518683 796.9832582212985Q508.0269897580147 881.8666629269719 440.4575894251466 881.8666629269719Q384.1757302954793 881.8666629269719 343.087044686079 843.3773123398423Q301.99835907667875 804.8879617527127 279.240300450474 725.7937478795648Q256.4822418242693 646.6995340064168 256.4822418242693 525.582393489778Q256.4822418242693 319.54509184509516 342.94000977277756 216.72215193137527Q429.3977777212858 113.89921201765537 569.133012406528 113.89921201765537Q672.3398831561208 113.89921201765537 743.3836842812598 170.91530837491155Q814.4274854063988 227.93140473216772 823.5883563607931 325.308795183897Q824.2110895067453 329.7064352557063 826.2224087789655 331.2777534611523Q828.2337280511856 332.8490716665983 829.366355612874 332.8490716665983Q832.133992023766 332.8490716665983 834.2990297116339 330.888931594789Q836.4640673995018 328.92879152297974 836.0640429854393 323.1411389410496Q830.4837219417095 224.9197561815381 778.9290333725512 147.30061051622033Q727.3743448033929 69.68146485090256 642.6388388201594 24.810704350471497Q557.903332836926 -20.060056149959564 452.2743042111397 -20.060056149959564Q328.4072964563966 -20.060056149959564 234.3752517774701 34.798557590693235Q140.34320709854364 89.65717133134604 87.4060122743249 189.3558120802045Q34.468817450106144 289.05445282906294 34.468817450106144 421.9970190525055Q34.468817450106144 564.1241531446576 88.15607407316566 671.5430038496852Q141.84333069622517 778.9618545547128 239.7403642348945 839.1433403007686Q337.63739777356386 899.3248260468245 469.3642633110285 899.3248260468245Q583.0184353664517 899.3248260468245 666.4615834094584 849.7376647889614Q749.9047314524651 800.1505035310984 795.7569075115025 713.9610449075699Q841.60908357054 627.7715862840414 841.60908357054 517.7571749612689Z" transform="translate(6904,0)"/><circle cx="8190.00" cy="170.00" r="170.00" fill="#214A73"/></g></svg>